<?xml version="1.0" encoding="UTF-8" standalone="no"?>
<svg
   id="svg8"
   version="1.1"
   viewBox="0 0 26.458333 17.727084"
   height="67"
   width="100"
   sodipodi:docname="crab-final-pure-white.svg"
   inkscape:version="1.2.1 (9c6d41e410, 2022-07-14, custom)"
   xmlns:inkscape="http://www.inkscape.org/namespaces/inkscape"
   xmlns:sodipodi="http://sodipodi.sourceforge.net/DTD/sodipodi-0.dtd"
   xmlns="http://www.w3.org/2000/svg"
   xmlns:svg="http://www.w3.org/2000/svg"
   xmlns:rdf="http://www.w3.org/1999/02/22-rdf-syntax-ns#"
   xmlns:cc="http://creativecommons.org/ns#"
   xmlns:dc="http://purl.org/dc/elements/1.1/">
  <sodipodi:namedview
     id="namedview7"
     pagecolor="#505050"
     bordercolor="#ffffff"
     borderopacity="1"
     inkscape:showpageshadow="0"
     inkscape:pageopacity="0"
     inkscape:pagecheckerboard="1"
     inkscape:deskcolor="#505050"
     showgrid="false"
     inkscape:zoom="12.686567"
     inkscape:cx="49.974118"
     inkscape:cy="33.539412"
     inkscape:window-width="3840"
     inkscape:window-height="2160"
     inkscape:window-x="0"
     inkscape:window-y="0"
     inkscape:window-maximized="1"
     inkscape:current-layer="layer1" />
  <defs
     id="defs2" />
  <metadata
     id="metadata5">
    <rdf:RDF>
      <cc:Work
         rdf:about="">
        <dc:format>image/svg+xml</dc:format>
        <dc:type
           rdf:resource="http://purl.org/dc/dcmitype/StillImage" />
      </cc:Work>
    </rdf:RDF>
  </metadata>
  <g
     transform="translate(0,-279.2729)"
     id="layer1">
    <path
       id="path1448"
       d="m 13.228876,279.27985 c -1.779877,10e-6 -3.3913338,0.36556 -4.5634798,0.93897 -1.172144,0.57341 -1.915762,1.35907 -1.915762,2.21063 v 2.42445 c -0.546417,-0.76081 -1.36249,-1.62774 -2.088013,-2.18727 -0.505957,-0.43315 -1.159267,-0.67704 -1.840131,-0.67692 -0.138383,3e-5 -0.277845,0.0101 -0.417488,0.0307 -1.117129,0.16492 -2.03117403,0.97658 -2.30489203,2.05701 L -9.8333333e-6,284.46863 2.3260072,285.03238 l -0.477273,1.88406 -0.09912,0.39122 0.39219,0.0949 c 1.095306,0.26544 2.252139,-0.14059 2.926883,-1.03517 0.349162,-0.46292 0.532408,-1.01053 0.547342,-1.56264 0.335665,0.43404 0.84166,1.03935 1.133608,1.50161 v 6.23038 l -0.44863,2.80246 1.768398,-0.52092 0.99958,2.17476 1.6409128,-1.6822 c 0.774403,0.15099 1.625417,0.23426 2.518981,0.23426 0.893623,1e-5 1.744814,-0.0834 2.519411,-0.2344 l 1.641047,1.68234 0.99958,-2.17476 1.768396,0.52092 -0.44864,-2.80246 v -6.23011 c 0.29197,-0.46229 0.79792,-1.06765 1.13362,-1.50174 0.015,0.55206 0.19821,1.09962 0.54734,1.5625 0.67474,0.89458 1.83158,1.30061 2.92688,1.03517 l 0.39219,-0.0949 -0.0991,-0.39122 -0.47728,-1.88406 2.32602,-0.56375 -0.0991,-0.39121 c -0.27371,-1.08043 -1.18762,-1.89209 -2.30475,-2.05701 -0.13963,-0.0206 -0.27924,-0.0307 -0.41762,-0.0307 -0.68102,-1.2e-4 -1.33427,0.244 -1.84027,0.67733 -0.72546,0.55957 -1.54147,1.42639 -2.08788,2.18714 v -2.42473 c -7e-5,-0.85157 -0.7436,-1.63721 -1.915755,-2.21063 -1.17216,-0.57341 -2.784139,-0.93898 -4.564045,-0.93897 z m 8.07e-4,0.82288 c 1.562122,0 2.975969,0.29117 3.993346,0.75769 0.508693,0.23326 0.917504,0.51041 1.197001,0.81343 0.279497,0.30302 0.429313,0.62917 0.429303,0.96942 10e-6,0.34025 -0.149806,0.6664 -0.429303,0.96942 -0.279497,0.30302 -0.688308,0.58017 -1.197001,0.81343 -0.04869,0.0223 -0.09848,0.0441 -0.149037,0.0656 -0.207228,-0.95404 -1.046063,-1.67761 -2.050058,-1.67761 -0.763598,0 -1.432041,0.41839 -1.799675,1.03852 -0.369675,-0.61106 -1.032958,-1.02239 -1.789664,-1.02239 -0.998507,0 -1.8336268,0.71619 -2.0465768,1.66259 -0.05149,-0.0218 -0.102236,-0.044 -0.151815,-0.0667 -0.508691,-0.23326 -0.917922,-0.51041 -1.197422,-0.81343 -0.279497,-0.30302 -0.429311,-0.62917 -0.429303,-0.96942 -8e-6,-0.34025 0.149806,-0.6664 0.429303,-0.96942 0.2795,-0.30302 0.688731,-0.58017 1.197422,-0.81343 1.0173788,-0.46652 2.4313598,-0.75769 3.9934798,-0.75769 z m -10.4151748,2.69221 c 0.693377,9e-5 1.346537,0.35363 1.71042,0.94398 0.415865,0.6747 0.374496,1.51753 -0.101626,2.14876 -0.394133,0.52255 -1.024914,0.79401 -1.67636,0.7702 l 0.561802,-2.21786 -2.266384,-0.54915 c 0.281491,-0.56354 0.815382,-0.97698 1.473246,-1.07409 0.09997,-0.0148 0.199846,-0.0219 0.298902,-0.0219 z m 20.8295148,0 c 0.0991,-10e-6 0.19893,0.007 0.2989,0.0219 0.65787,0.0971 1.19179,0.51055 1.47324,1.0741 l -2.26638,0.54914 0.56194,2.21786 c -0.65144,0.0238 -1.28236,-0.24765 -1.67649,-0.77019 -0.47613,-0.63124 -0.51736,-1.47407 -0.1015,-2.14877 0.36389,-0.59035 1.0169,-0.94389 1.71029,-0.94397 z m -8.620091,0.79884 c 0.729039,0 1.319482,0.59825 1.319482,1.35619 0,0.75793 -0.590443,1.35618 -1.319482,1.35618 -0.72904,0 -1.319895,-0.59825 -1.319895,-1.35618 0,-0.75794 0.590855,-1.35619 1.319895,-1.35619 z m -3.58934,0.0167 c 0.729055,0 1.320045,0.5984 1.320045,1.35633 0,0.75793 -0.59099,1.35605 -1.320045,1.35605 -0.729039,0 -1.319894,-0.59812 -1.319894,-1.35605 0,-0.75793 0.590855,-1.35633 1.319894,-1.35633 z m -3.8251158,0.762 c 0.35631,0.34982 0.793856,0.64289 1.312528,0.88072 0.149529,0.0686 0.305948,0.13258 0.467265,0.19311 0.215014,0.94349 1.0488238,1.65634 2.0453228,1.65634 0.763604,0 1.432189,-0.41839 1.799818,-1.03852 0.369675,0.61105 1.032829,1.02239 1.789522,1.02239 0.989999,0 1.819532,-0.70401 2.04116,-1.6384 0.162898,-0.061 0.320783,-0.12571 0.471713,-0.19492 0.518443,-0.23773 0.956291,-0.53056 1.312528,-0.88016 v 1.40192 c 10e-6,0.34026 -0.149806,0.6664 -0.429305,0.96942 -0.279497,0.30302 -0.688309,0.58017 -1.196999,0.81343 -1.017379,0.46652 -2.431224,0.75769 -3.993346,0.75769 -1.562122,0 -2.976104,-0.29117 -3.9934798,-0.75769 -0.508694,-0.23326 -0.917925,-0.51041 -1.197422,-0.81343 -0.279499,-0.30301 -0.429311,-0.62916 -0.429305,-0.96942 z m 0,3.13167 c 0.35631,0.34982 0.793856,0.64289 1.312528,0.88072 1.1489958,0.52687 2.6524378,0.8265 4.3076788,0.8265 1.655247,0 3.158126,-0.29963 4.307122,-0.8265 0.518443,-0.23773 0.956291,-0.53055 1.312528,-0.88017 v 1.40249 c 10e-6,0.34023 -0.149806,0.66639 -0.429305,0.96941 -0.279497,0.30302 -0.688309,0.58018 -1.196999,0.81344 -1.017379,0.46652 -2.431224,0.75768 -3.993346,0.75768 -1.562122,0 -2.976104,-0.29116 -3.9934798,-0.75768 -0.508694,-0.23326 -0.917925,-0.51042 -1.197422,-0.81344 -0.279499,-0.30302 -0.429311,-0.62918 -0.429305,-0.96941 z m 0,3.13222 c 0.35631,0.34983 0.793856,0.64289 1.312528,0.88073 1.1489958,0.52687 2.6524378,0.8265 4.3076788,0.8265 1.655247,0 3.158126,-0.29963 4.307122,-0.8265 0.518443,-0.23773 0.956291,-0.53056 1.312528,-0.88017 v 1.54428 c 10e-6,0.34026 -0.149806,0.6664 -0.429305,0.96942 -0.279497,0.30302 -0.688309,0.58018 -1.196999,0.81344 -1.017379,0.46652 -2.431224,0.75768 -3.993346,0.75768 -1.562122,0 -2.976104,-0.29116 -3.9934798,-0.75768 -0.508694,-0.23326 -0.917925,-0.51042 -1.197422,-0.81344 -0.279499,-0.30301 -0.429311,-0.62916 -0.429305,-0.96942 z"
       style="opacity:1;fill:#ffffff;fill-opacity:1;stroke:none;stroke-width:0.5;stroke-linecap:round;stroke-linejoin:round;stroke-miterlimit:4;stroke-dasharray:none;stroke-dashoffset:0;stroke-opacity:1;paint-order:stroke fill markers" />
  </g>
</svg>
