<?xml version="1.0" encoding="UTF-8" standalone="no"?>
<svg
   id="svg8"
   version="1.1"
   viewBox="0 0 5.6160472 5.4930225"
   height="20.761017"
   width="21.226"
   sodipodi:docname="crab-icon.svg"
   inkscape:version="1.2.1 (9c6d41e410, 2022-07-14, custom)"
   xmlns:inkscape="http://www.inkscape.org/namespaces/inkscape"
   xmlns:sodipodi="http://sodipodi.sourceforge.net/DTD/sodipodi-0.dtd"
   xmlns="http://www.w3.org/2000/svg"
   xmlns:svg="http://www.w3.org/2000/svg"
   xmlns:rdf="http://www.w3.org/1999/02/22-rdf-syntax-ns#"
   xmlns:cc="http://creativecommons.org/ns#"
   xmlns:dc="http://purl.org/dc/elements/1.1/">
  <sodipodi:namedview
     id="namedview7"
     pagecolor="#505050"
     bordercolor="#ffffff"
     borderopacity="1"
     inkscape:showpageshadow="0"
     inkscape:pageopacity="0"
     inkscape:pagecheckerboard="1"
     inkscape:deskcolor="#505050"
     showgrid="false"
     inkscape:zoom="17.630753"
     inkscape:cx="-17.356037"
     inkscape:cy="9.5571642"
     inkscape:window-width="1246"
     inkscape:window-height="2080"
     inkscape:window-x="2570"
     inkscape:window-y="56"
     inkscape:window-maximized="1"
     inkscape:current-layer="svg8" />
  <defs
     id="defs2" />
  <metadata
     id="metadata5">
    <rdf:RDF>
      <cc:Work
         rdf:about="">
        <dc:format>image/svg+xml</dc:format>
        <dc:type
           rdf:resource="http://purl.org/dc/dcmitype/StillImage" />
      </cc:Work>
    </rdf:RDF>
  </metadata>
  <path
     id="path1448"
     d="M 0,2.81518 C 0.015,3.36724 0.19821,3.9148 0.54734,4.37768 1.22208,5.27226 2.37892,5.67829 3.47422,5.41285 L 3.86641,5.31795 3.76731,4.92673 3.29003,3.04267 5.61605,2.47892 5.51695,2.08771 C 5.24324,1.00728 4.32933,0.19562004 3.2122,0.03070004 3.07257,0.01010004 2.93296,4.4219618e-8 2.79458,4.4219618e-8 2.11356,-1.1995578e-4 1.46031,0.24400004 0.95431,0.67733004 0.415076,1.1918706 0.002638,1.848178 0,2.81518 Z M 2.80173,0.80523004 c 0.0991,-10e-6 0.19893,0.007 0.2989,0.0219 C 3.7585,0.92423004 4.29242,1.33768 4.57387,1.90123 L 2.30749,2.45037 2.86943,4.66823 C 2.21799,4.69203 1.58707,4.42058 1.19294,3.89804 0.71681,3.2668 0.67558,2.42397 1.09144,1.74927 1.45533,1.15892 2.10834,0.80538004 2.80173,0.80530004 Z"
     style="fill:#d40000;fill-opacity:1;stroke:none;stroke-width:0.5;stroke-linecap:round;stroke-linejoin:round;stroke-miterlimit:4;stroke-dasharray:none;stroke-dashoffset:0;stroke-opacity:1;paint-order:stroke fill markers"
     sodipodi:nodetypes="csccccccccccccccccccc" />
</svg>
