<?xml version="1.0" encoding="UTF-8" standalone="no"?>
<!DOCTYPE svg PUBLIC "-//W3C//DTD SVG 1.1//EN" "http://www.w3.org/Graphics/SVG/1.1/DTD/svg11.dtd">
<svg width="100%" height="100%" viewBox="0 0 22 21" version="1.1" xmlns="http://www.w3.org/2000/svg" xmlns:xlink="http://www.w3.org/1999/xlink" xml:space="preserve" xmlns:serif="http://www.serif.com/" style="fill-rule:evenodd;clip-rule:evenodd;stroke-linejoin:round;stroke-miterlimit:2;">
    <g id="path1448" transform="matrix(3.77953,0,0,3.77953,4.02265e-06,0)">
        <path d="M0,2.815C0.015,3.367 0.198,3.915 0.547,4.378C1.222,5.272 2.379,5.678 3.474,5.413L3.866,5.318L3.767,4.927L3.29,3.043L5.616,2.479L5.517,2.088C5.243,1.007 4.329,0.196 3.212,0.031C3.073,0.01 2.933,0 2.795,0C2.114,-0 1.46,0.244 0.954,0.677C0.415,1.192 0.003,1.848 0,2.815ZM2.802,0.805C2.901,0.805 3.001,0.812 3.101,0.827C3.759,0.924 4.292,1.338 4.574,1.901L2.307,2.45L2.869,4.668C2.218,4.692 1.587,4.421 1.193,3.898C0.717,3.267 0.676,2.424 1.091,1.749C1.455,1.159 2.108,0.805 2.802,0.805L2.802,0.805Z" style="fill:rgb(136,136,136);fill-rule:nonzero;"/>
    </g>
</svg>
