<?xml version="1.0" encoding="UTF-8" standalone="no"?>
<!DOCTYPE svg PUBLIC "-//W3C//DTD SVG 1.1//EN" "http://www.w3.org/Graphics/SVG/1.1/DTD/svg11.dtd">
<svg width="100%" height="100%" viewBox="0 0 100 67" version="1.1" xmlns="http://www.w3.org/2000/svg" xmlns:xlink="http://www.w3.org/1999/xlink" xml:space="preserve" xmlns:serif="http://www.serif.com/" style="fill-rule:evenodd;clip-rule:evenodd;stroke-linejoin:round;stroke-miterlimit:2;">
    <g id="layer1" transform="matrix(3.77953,0,0,3.77953,2.51028e-06,-1055.52)">
        <path id="path1448" d="M13.229,279.28C11.449,279.28 9.838,279.645 8.665,280.219C7.493,280.792 6.75,281.578 6.75,282.429L6.75,284.854C6.203,284.093 5.387,283.226 4.662,282.667C4.156,282.233 3.502,281.99 2.821,281.99C2.683,281.99 2.544,282 2.404,282.02C1.287,282.185 0.373,282.997 0.099,284.077L-0,284.469L2.326,285.032L1.849,286.916L1.75,287.308L2.142,287.403C3.237,287.668 4.394,287.262 5.069,286.367C5.418,285.904 5.601,285.357 5.616,284.805C5.952,285.239 6.458,285.844 6.75,286.306L6.75,292.537L6.301,295.339L8.069,294.818L9.069,296.993L10.71,295.311C11.484,295.462 12.335,295.545 13.229,295.545C14.123,295.545 14.974,295.462 15.748,295.311L17.389,296.993L18.389,294.818L20.157,295.339L19.709,292.537L19.709,286.307C20.001,285.844 20.507,285.239 20.842,284.805C20.857,285.357 21.041,285.905 21.39,286.367C22.064,287.262 23.221,287.668 24.317,287.403L24.709,287.308L24.61,286.916L24.132,285.032L26.458,284.469L26.359,284.077C26.086,282.997 25.172,282.185 24.054,282.02C23.915,282 23.775,281.99 23.637,281.99C22.956,281.99 22.303,282.234 21.797,282.667C21.071,283.227 20.255,284.093 19.709,284.854L19.709,282.429C19.709,281.578 18.965,280.792 17.793,280.219C16.621,279.645 15.009,279.28 13.229,279.28L13.229,279.28ZM13.23,280.103C14.792,280.103 16.206,280.394 17.223,280.86C17.732,281.094 18.141,281.371 18.42,281.674C18.7,281.977 18.849,282.303 18.849,282.643C18.849,282.984 18.7,283.31 18.42,283.613C18.141,283.916 17.732,284.193 17.223,284.426C17.174,284.448 17.125,284.47 17.074,284.492C16.867,283.538 16.028,282.814 15.024,282.814C14.26,282.814 13.592,283.233 13.224,283.853C12.855,283.242 12.191,282.83 11.435,282.83C10.436,282.83 9.601,283.546 9.388,284.493C9.337,284.471 9.286,284.449 9.236,284.426C8.728,284.193 8.318,283.916 8.039,283.613C7.759,283.31 7.609,282.984 7.609,282.643C7.609,282.303 7.759,281.977 8.039,281.674C8.318,281.371 8.728,281.094 9.236,280.86C10.254,280.394 11.668,280.103 13.23,280.103L13.23,280.103ZM2.815,282.795C3.508,282.795 4.161,283.149 4.525,283.739C4.941,284.414 4.899,285.256 4.423,285.888C4.029,286.41 3.398,286.682 2.747,286.658L3.309,284.44L1.042,283.891C1.324,283.327 1.858,282.914 2.516,282.817C2.616,282.802 2.715,282.795 2.815,282.795L2.815,282.795ZM23.644,282.795C23.743,282.795 23.843,282.802 23.943,282.817C24.601,282.914 25.135,283.327 25.416,283.891L23.15,284.44L23.712,286.658C23.06,286.682 22.429,286.41 22.035,285.888C21.559,285.257 21.518,284.414 21.934,283.739C22.298,283.149 22.951,282.795 23.644,282.795L23.644,282.795ZM15.024,283.594C15.753,283.594 16.343,284.192 16.343,284.95C16.343,285.708 15.753,286.306 15.024,286.306C14.295,286.306 13.704,285.708 13.704,284.95C13.704,284.192 14.295,283.594 15.024,283.594ZM11.435,283.61C12.164,283.61 12.755,284.209 12.755,284.967C12.755,285.725 12.164,286.323 11.435,286.323C10.706,286.323 10.115,285.725 10.115,284.967C10.115,284.209 10.706,283.61 11.435,283.61ZM7.609,284.372C7.966,284.722 8.403,285.015 8.922,285.253C9.072,285.322 9.228,285.386 9.389,285.446C9.604,286.39 10.438,287.103 11.435,287.103C12.198,287.103 12.867,286.684 13.234,286.064C13.604,286.675 14.267,287.087 15.024,287.087C16.014,287.087 16.843,286.383 17.065,285.448C17.228,285.387 17.386,285.322 17.537,285.253C18.055,285.015 18.493,284.723 18.849,284.373L18.849,285.775C18.849,286.115 18.7,286.441 18.42,286.744C18.141,287.047 17.732,287.325 17.223,287.558C16.206,288.024 14.792,288.316 13.23,288.316C11.668,288.316 10.254,288.024 9.236,287.558C8.728,287.325 8.318,287.047 8.039,286.744C7.759,286.441 7.609,286.115 7.609,285.775L7.609,284.372ZM7.609,287.504C7.966,287.854 8.403,288.147 8.922,288.385C10.071,288.912 11.574,289.211 13.23,289.211C14.885,289.211 16.388,288.912 17.537,288.385C18.055,288.147 18.493,287.854 18.849,287.505L18.849,288.907C18.849,289.247 18.7,289.574 18.42,289.877C18.141,290.18 17.732,290.457 17.223,290.69C16.206,291.157 14.792,291.448 13.23,291.448C11.668,291.448 10.254,291.157 9.236,290.69C8.728,290.457 8.318,290.18 8.039,289.877C7.759,289.574 7.609,289.247 7.609,288.907L7.609,287.504ZM7.609,290.636C7.966,290.986 8.403,291.279 8.922,291.517C10.071,292.044 11.574,292.344 13.23,292.344C14.885,292.344 16.388,292.044 17.537,291.517C18.055,291.279 18.493,290.987 18.849,290.637L18.849,292.181C18.849,292.521 18.7,292.848 18.42,293.151C18.141,293.454 17.732,293.731 17.223,293.964C16.206,294.431 14.792,294.722 13.23,294.722C11.668,294.722 10.254,294.431 9.236,293.964C8.728,293.731 8.318,293.454 8.039,293.151C7.759,292.848 7.609,292.521 7.609,292.181L7.609,290.636Z" style="fill:rgb(136,136,136);fill-rule:nonzero;"/>
    </g>
</svg>
